<svg width="854" height="231" viewBox="0 0 854 231" fill="none" xmlns="http://www.w3.org/2000/svg">
<rect x="736.199" y="54" width="36.3699" height="121.036" fill="#1492E6"/>
<rect x="821.061" y="54" width="32.3288" height="121.036" fill="#88C7F1"/>
<rect x="780.652" y="54" width="32.3288" height="121.036" fill="#4EACEB"/>
<path d="M25.127 115.698L24.9756 98.6689H48.3618C54.366 98.6689 58.7557 97.5841 61.5308 95.4146C64.3058 93.245 65.6934 90.0915 65.6934 85.9541C65.6934 81.2113 64.3058 77.8307 61.5308 75.8125C58.8062 73.7438 54.4417 72.7095 48.4375 72.7095H33.8306V163H9.15771V52.8047H48.4375C61.556 52.8047 71.7985 55.3022 79.165 60.2974C86.582 65.242 90.2905 72.8608 90.2905 83.1538C90.2905 87.6444 89.2814 91.8574 87.2632 95.793C85.245 99.6781 81.9906 102.857 77.5 105.329C73.0599 107.751 67.1818 109.038 59.8657 109.189L53.1299 115.698H25.127ZM18.5425 163L27.8516 143.171H52.146C57.7466 143.171 61.783 141.91 64.2554 139.387C66.7782 136.864 68.0396 133.761 68.0396 130.078C68.0396 127.101 67.535 124.553 66.5259 122.434C65.5168 120.264 63.9274 118.599 61.7578 117.438C59.5882 116.278 56.7122 115.698 53.1299 115.698H30.9546L31.106 98.6689H58.3521L64.0283 105.48C70.9912 105.228 76.5666 106.313 80.7544 108.735C84.9422 111.106 87.9696 114.235 89.8364 118.12C91.7033 122.005 92.6367 126.092 92.6367 130.38C92.6367 141.178 89.1553 149.326 82.1924 154.826C75.2295 160.275 65.214 163 52.146 163H18.5425ZM132.295 163H108.606V46.75H132.295V163ZM192.766 108.508C192.766 104.976 191.883 102.176 190.117 100.107C188.402 97.9878 185.627 96.9282 181.792 96.9282C179.622 96.9282 177.756 97.2814 176.191 97.9878C174.678 98.6942 173.492 99.7285 172.634 101.091C171.827 102.403 171.423 104.068 171.423 106.086H147.81C147.81 101.091 149.248 96.6255 152.124 92.6899C155.05 88.7039 159.137 85.5252 164.385 83.1538C169.683 80.7824 175.914 79.5967 183.079 79.5967C189.486 79.5967 195.188 80.6815 200.183 82.8511C205.229 84.9702 209.215 88.1994 212.141 92.5386C215.068 96.8273 216.531 102.201 216.531 108.659V142.641C216.531 147.636 216.808 151.547 217.363 154.372C217.969 157.147 218.801 159.594 219.861 161.713V163H196.096C194.986 160.629 194.154 157.677 193.599 154.145C193.044 150.563 192.766 146.905 192.766 143.171V108.508ZM195.945 126.293H184.441C179.143 126.293 175.334 127.479 173.013 129.851C170.742 132.222 169.607 135.048 169.607 138.327C169.607 140.749 170.465 142.767 172.18 144.382C173.946 145.946 176.267 146.728 179.143 146.728C182.17 146.728 184.794 146.148 187.014 144.987C189.234 143.776 190.924 142.364 192.085 140.749C193.296 139.084 193.851 137.545 193.75 136.132L199.653 146.274C198.846 148.292 197.761 150.361 196.399 152.48C195.087 154.599 193.422 156.567 191.404 158.383C189.386 160.2 186.938 161.688 184.062 162.849C181.187 163.959 177.781 164.514 173.845 164.514C168.699 164.514 164.006 163.479 159.768 161.411C155.53 159.292 152.149 156.39 149.626 152.707C147.154 148.973 145.918 144.685 145.918 139.841C145.918 131.314 149.071 124.679 155.378 119.936C161.736 115.193 171.272 112.822 183.987 112.822H195.793L195.945 126.293ZM255.356 163H231.743V81.1104H253.918L255.356 98.5933V163ZM245.972 119.709C245.972 111.333 247.309 104.169 249.983 98.2148C252.657 92.2106 256.391 87.6191 261.184 84.4404C266.028 81.2113 271.628 79.5967 277.986 79.5967C283.132 79.5967 287.623 80.6058 291.458 82.624C295.343 84.6423 298.37 87.9471 300.54 92.5386C302.76 97.13 303.87 103.361 303.87 111.232V163H280.105V111.081C280.105 107.801 279.626 105.279 278.667 103.513C277.759 101.696 276.371 100.46 274.504 99.8042C272.688 99.0978 270.468 98.7446 267.844 98.7446C265.12 98.7446 262.773 99.2492 260.806 100.258C258.838 101.267 257.198 102.705 255.886 104.572C254.625 106.389 253.691 108.558 253.086 111.081C252.48 113.604 252.178 116.379 252.178 119.406L245.972 119.709ZM343.149 163H319.46V46.6743H343.149V163ZM359.573 122.434L340.198 141.733L331.191 125.158L346.631 105.026L366.46 81.1104H394.841L359.573 122.434ZM347.161 125.764L363.887 112.141L397.188 163H370.017L347.161 125.764ZM453.875 163L454.026 143.171H477.791C483.442 143.171 488.184 141.91 492.019 139.387C495.854 136.864 498.755 133.155 500.723 128.261C502.69 123.367 503.674 117.338 503.674 110.173V105.48C503.674 98.2653 502.69 92.2358 500.723 87.3921C498.755 82.5483 495.854 78.8903 492.019 76.418C488.184 73.9456 483.467 72.7095 477.866 72.7095H453.42V52.8047H477.866C487.856 52.8047 496.661 55.0247 504.28 59.4648C511.899 63.9049 517.852 70.111 522.141 78.083C526.43 86.0046 528.574 95.1875 528.574 105.632V110.173C528.574 120.668 526.43 129.876 522.141 137.797C517.852 145.719 511.899 151.9 504.28 156.34C496.661 160.78 487.831 163 477.791 163H453.875ZM467.952 163H443.279V52.8047H467.952V163ZM581.326 164.514C572.647 164.514 565.205 162.722 558.999 159.14C552.843 155.507 548.126 150.689 544.846 144.685C541.567 138.68 539.927 132.071 539.927 124.855V121.979C539.927 113.856 541.466 106.59 544.543 100.183C547.621 93.7747 552.036 88.7544 557.788 85.1216C563.59 81.4383 570.553 79.5967 578.677 79.5967C586.598 79.5967 593.258 81.2617 598.657 84.5918C604.106 87.9219 608.244 92.6143 611.069 98.6689C613.895 104.673 615.308 111.762 615.308 119.936V129.926H549.69V114.108H592.148V112.216C592.098 109.492 591.593 107.12 590.635 105.102C589.676 103.033 588.188 101.444 586.169 100.334C584.202 99.1735 581.654 98.5933 578.525 98.5933C574.792 98.5933 571.84 99.6528 569.67 101.772C567.501 103.841 565.937 106.641 564.978 110.173C564.07 113.654 563.616 117.59 563.616 121.979V124.855C563.616 128.942 564.373 132.525 565.886 135.603C567.4 138.68 569.595 141.102 572.471 142.868C575.347 144.584 578.803 145.441 582.839 145.441C586.624 145.441 590.181 144.76 593.511 143.398C596.891 141.985 599.792 139.74 602.214 136.662L613.416 149.831C610.893 153.514 606.907 156.895 601.458 159.973C596.008 163 589.298 164.514 581.326 164.514ZM671.162 81.1104H695.911L668.74 163H653.831L654.133 145.744L671.162 81.1104ZM660.264 145.744L660.491 163H645.657L618.335 81.1104H643.235L660.264 145.744Z" fill="#1492E6"/>
</svg>
